# xmcd
# 
# Track frame offsets:
#     150
#     21801
#     40725
#     61540
# 
# Disc length: 1199
# 
# Revision: 0
# Processed by: cddbd v1.5.2PL0 Copyright (c) Steve Scherf et al.
# Submitted via: fre:ac v1.0.17
# 
DISCID=2304ad04
DTITLE=ThirtyOneFifty - End Of The Line
DYEAR=2010
DGENRE=Alt. Rock
TTITLE0=That Day
TTITLE1=Uncover Me
TTITLE2=Bleeding Truth
TTITLE3=It's Over
EXTD=
EXTT0=
EXTT1=
EXTT2=
EXTT3=
PLAYORDER=
